<svg width="1100" height="680" viewBox="0 0 1100 680" fill="none" xmlns="http://www.w3.org/2000/svg">
  <rect width="1100" height="680" fill="#F6F8FB"/>
  <rect width="94" height="680" fill="#111827"/>
  <rect x="28" y="28" width="38" height="38" rx="8" fill="#F4B04E"/>
  <rect x="25" y="112" width="44" height="44" rx="8" fill="#273244"/>
  <rect x="25" y="172" width="44" height="44" rx="8" fill="#273244"/>
  <rect x="25" y="232" width="44" height="44" rx="8" fill="#273244"/>
  <rect x="138" y="48" width="330" height="28" rx="6" fill="#18212F"/>
  <rect x="138" y="88" width="210" height="14" rx="7" fill="#7A8799"/>
  <rect x="868" y="46" width="158" height="48" rx="8" fill="white" stroke="#DCE2EA"/>
  <rect x="138" y="146" width="202" height="150" rx="8" fill="white" stroke="#DCE2EA"/>
  <rect x="366" y="146" width="202" height="150" rx="8" fill="white" stroke="#DCE2EA"/>
  <rect x="594" y="146" width="202" height="150" rx="8" fill="white" stroke="#DCE2EA"/>
  <rect x="822" y="146" width="202" height="150" rx="8" fill="white" stroke="#DCE2EA"/>
  <rect x="162" y="170" width="50" height="50" rx="8" fill="#DDF5F1"/>
  <rect x="390" y="170" width="50" height="50" rx="8" fill="#FFF4DF"/>
  <rect x="618" y="170" width="50" height="50" rx="8" fill="#E9EDF5"/>
  <rect x="846" y="170" width="50" height="50" rx="8" fill="#FBE7E4"/>
  <rect x="162" y="242" width="116" height="16" rx="8" fill="#18212F"/>
  <rect x="390" y="242" width="116" height="16" rx="8" fill="#18212F"/>
  <rect x="618" y="242" width="116" height="16" rx="8" fill="#18212F"/>
  <rect x="846" y="242" width="116" height="16" rx="8" fill="#18212F"/>
  <rect x="138" y="326" width="886" height="112" rx="8" fill="white" stroke="#DCE2EA"/>
  <rect x="138" y="326" width="6" height="112" fill="#C98721"/>
  <rect x="166" y="354" width="170" height="20" rx="10" fill="#18212F"/>
  <rect x="166" y="390" width="648" height="15" rx="7.5" fill="#7A8799"/>
  <rect x="138" y="492" width="202" height="140" rx="8" fill="white" stroke="#DCE2EA"/>
  <rect x="366" y="492" width="202" height="140" rx="8" fill="white" stroke="#DCE2EA"/>
  <rect x="594" y="492" width="202" height="140" rx="8" fill="white" stroke="#DCE2EA"/>
  <rect x="822" y="492" width="202" height="140" rx="8" fill="white" stroke="#DCE2EA"/>
  <rect x="162" y="516" width="48" height="48" rx="8" fill="#DDF5F1"/>
  <rect x="390" y="516" width="48" height="48" rx="8" fill="#FFF4DF"/>
  <rect x="618" y="516" width="48" height="48" rx="8" fill="#E9EDF5"/>
  <rect x="846" y="516" width="48" height="48" rx="8" fill="#FBE7E4"/>
  <rect x="162" y="586" width="122" height="15" rx="7.5" fill="#18212F"/>
  <rect x="390" y="586" width="122" height="15" rx="7.5" fill="#18212F"/>
  <rect x="618" y="586" width="122" height="15" rx="7.5" fill="#18212F"/>
  <rect x="846" y="586" width="122" height="15" rx="7.5" fill="#18212F"/>
</svg>
